<svg xmlns="http://www.w3.org/2000/svg" xmlns:xlink="http://www.w3.org/1999/xlink" width="273.015" height="77.112" viewBox="0 0 273.015 77.112">
  <defs>
    <clipPath id="clip-path">
      <rect id="Rectangle_95" data-name="Rectangle 95" width="273.015" height="77.112" fill="none"/>
    </clipPath>
  </defs>
  <g id="Group_31" data-name="Group 31" transform="translate(0 0)">
    <g id="Group_30" data-name="Group 30" transform="translate(0 0)" clip-path="url(#clip-path)">
      <path id="Path_571" data-name="Path 571" d="M55.773,65.01a7.42,7.42,0,0,1-3.626,6.445c-5.66,3.277-12.715,5.094-21.276,5.094C12.554,76.549,0,63.645,0,41.415,0,20.786,11.834,6.092,30.562,6.092c11.526,0,18.728,3.579,25.211,13.187A5.66,5.66,0,0,1,56.8,22.387c0,3.109-2.675,5.746-6.38,5.746A6.415,6.415,0,0,1,45.071,25.4c-3.4-5.463-7.821-7.818-14.406-7.818-11.216,0-17.9,10.079-17.9,23.925,0,14.789,7.2,23.831,19.139,23.831,5.557,0,10.085-1.131,12.349-2.543V49.044h-10.7c-3.19,0-6.072-2.637-6.072-5.462,0-3.014,2.882-5.463,6.072-5.463H49.393c3.5,0,6.38,2.637,6.38,5.651Z" transform="translate(0 0.563)" fill="#fff"/>
      <path id="Path_572" data-name="Path 572" d="M73.877,62.58c0,3.956,1.132,6.217,1.132,8.1,0,3.108-2.778,5.274-6.175,5.274-6.38,0-7.2-6.593-7.2-13.281V9.83c0-3.014,2.675-5.462,6.174-5.462,3.4,0,6.072,2.448,6.072,5.462Z" transform="translate(5.699 0.404)" fill="#fff"/>
      <path id="Path_573" data-name="Path 573" d="M95.873,60.554c0,4.05,1.132,5.651,1.132,8.007,0,3.014-2.675,5.368-6.071,5.368-6.277,0-7.306-6.5-7.306-13.281V31.731c0-3.109,1.956-5.463,6.174-5.463,3.294,0,6.072,2.449,6.072,5.463Z" transform="translate(7.734 2.429)" fill="#fff"/>
      <path id="Path_574" data-name="Path 574" d="M168.99,60.61c0,4.05.823,5.651,1.029,8.007,0,3.014-2.573,5.368-6.175,5.368-6.071,0-7.1-6.593-7.1-13.281V44.126c0-4.427-1.338-9.23-7-9.23-2.573,0-4.939,1.036-7.306,4.05a28.217,28.217,0,0,1,.515,5.37v16.3c0,3.956.721,6.028.721,7.818,0,3.391-2.677,5.557-6.175,5.557-5.968,0-6.792-6.216-6.792-13.186V44.126c0-4.333-1.234-9.23-6.895-9.23A8.466,8.466,0,0,0,117.024,38V68.617c0,2.92-2.677,5.368-6.277,5.368-4.014,0-5.968-3.2-5.968-6.876v-27.6c0-4.334-1.133-5.934-1.133-8.1a4.8,4.8,0,0,1,5.043-5.087,7.875,7.875,0,0,1,7.2,5.181c3.087-3.391,7-5.745,12.04-5.745a13.655,13.655,0,0,1,12.451,7.535,16.57,16.57,0,0,1,13.687-7.63c8.746,0,14.921,7.159,14.921,19.311Z" transform="translate(9.585 2.373)" fill="#fff"/>
      <path id="Path_575" data-name="Path 575" d="M183.271,67.486c0,3.673-2.161,6.5-6.071,6.5-4.116,0-6.175-3.014-6.175-6.593V39.228c0-4.333-1.132-5.84-1.132-8.195,0-2.732,2.984-4.71,5.454-4.71,4.631,0,6.585,3.014,7.1,6.781,3.6-4.9,8.232-7.441,13.377-7.441,4.63,0,9.775,2.26,9.775,7.065,0,3.2-2.779,5.462-6.585,5.462-3.5,0-4.426-2.166-9.365-2.166-1.749,0-5.454,1.319-6.38,3.014Z" transform="translate(15.711 2.373)" fill="#fff"/>
      <path id="Path_576" data-name="Path 576" d="M241.421,62.768c0,2.731,2.057,3.674,2.057,6.028,0,2.449-2.161,5.181-6.276,5.181-4.631,0-6.072-3.579-6.587-6.216-2.778,4.333-7.409,6.97-13.583,6.97-7.718,0-13.687-4.239-13.687-12.529,0-6.5,3.7-9.418,7.306-10.926,5.556-2.354,13.48-2.072,18.419-4.333V41.387c0-3.768-1.544-5.276-5.351-5.276-3.6,0-4.939,1.414-6.791,3.674-1.236,1.508-2.573,3.109-5.557,3.109-3.7,0-5.66-2.355-5.66-5.463a10.085,10.085,0,0,1,3.808-7.348c3.086-2.637,7.615-4.332,14.612-4.332,9.879,0,17.288,3.3,17.288,16.2Zm-12.04-9.89c-4.014,1.978-8.541,2.354-11.216,3.673a4.575,4.575,0,0,0-2.881,4.428c0,3.108,2.057,4.8,5.556,4.8a9.9,9.9,0,0,0,8.541-4.993Z" transform="translate(18.805 2.381)" fill="#fff"/>
      <path id="Path_577" data-name="Path 577" d="M90,3.463h0a18.3,18.3,0,0,1-7.48,8.868A18.294,18.294,0,0,1,90,21.2a18.294,18.294,0,0,1,7.48-8.867A18.3,18.3,0,0,1,90,3.463" transform="translate(7.631 0.32)" fill="#fff"/>
      <path id="Path_578" data-name="Path 578" d="M90,3.463h0a18.3,18.3,0,0,1-7.48,8.868A18.294,18.294,0,0,1,90,21.2a18.294,18.294,0,0,1,7.48-8.867A18.3,18.3,0,0,1,90,3.463Z" transform="translate(7.631 0.32)" fill="none" stroke="#fff" stroke-linecap="round" stroke-linejoin="round" stroke-width="1.574"/>
      <path id="Path_579" data-name="Path 579" d="M235.419.828h0a19.265,19.265,0,0,1-7.873,9.332,19.265,19.265,0,0,1,7.873,9.332,19.25,19.25,0,0,1,7.871-9.332A19.25,19.25,0,0,1,235.419.828" transform="translate(21.043 0.077)" fill="#fff"/>
      <path id="Path_580" data-name="Path 580" d="M235.419.828h0a19.265,19.265,0,0,1-7.873,9.332,19.265,19.265,0,0,1,7.873,9.332,19.25,19.25,0,0,1,7.871-9.332A19.25,19.25,0,0,1,235.419.828Z" transform="translate(21.043 0.077)" fill="none" stroke="#fff" stroke-linecap="round" stroke-linejoin="round" stroke-width="1.656"/>
      <path id="Path_581" data-name="Path 581" d="M244.021,16.834h0a15.378,15.378,0,0,1-6.287,7.453,15.378,15.378,0,0,1,6.287,7.453,15.378,15.378,0,0,1,6.287-7.453,15.378,15.378,0,0,1-6.287-7.453" transform="translate(21.985 1.557)" fill="#fff"/>
      <path id="Path_582" data-name="Path 582" d="M244.021,16.834h0a15.378,15.378,0,0,1-6.287,7.453,15.378,15.378,0,0,1,6.287,7.453,15.378,15.378,0,0,1,6.287-7.453A15.378,15.378,0,0,1,244.021,16.834Z" transform="translate(21.985 1.557)" fill="none" stroke="#fff" stroke-linecap="round" stroke-linejoin="round" stroke-width="1.323"/>
      <path id="Path_583" data-name="Path 583" d="M222.984,12.908h0a8.854,8.854,0,0,1-3.618,4.289,8.852,8.852,0,0,1,3.618,4.288A8.852,8.852,0,0,1,226.6,17.2a8.854,8.854,0,0,1-3.618-4.289" transform="translate(20.286 1.194)" fill="#fff"/>
      <path id="Path_584" data-name="Path 584" d="M222.984,12.908h0a8.854,8.854,0,0,1-3.618,4.289,8.852,8.852,0,0,1,3.618,4.288A8.852,8.852,0,0,1,226.6,17.2,8.854,8.854,0,0,1,222.984,12.908Z" transform="translate(20.286 1.194)" fill="none" stroke="#fff" stroke-linecap="round" stroke-linejoin="round" stroke-width="0.761"/>
    </g>
  </g>
</svg>
