<svg id="Group_9" data-name="Group 9" xmlns="http://www.w3.org/2000/svg" xmlns:xlink="http://www.w3.org/1999/xlink" width="330.434" height="382.353" viewBox="0 0 330.434 382.353">
  <defs>
    <clipPath id="clip-path">
      <rect id="Rectangle_43" data-name="Rectangle 43" width="330.434" height="382.353" fill="#d6843c"/>
    </clipPath>
  </defs>
  <g id="Group_8" data-name="Group 8" clip-path="url(#clip-path)">
    <path id="Path_240" data-name="Path 240" d="M268.752,323.307c13.829-12.08,28.375-23.43,39.851-37.971,2.766-3.5,6.023-6.832,7.168-12.422-4.985.888-7.373,4.092-10.172,6.341a139.422,139.422,0,0,1-32.313,19.473c-29.832,12.857-56.1,7.571-78.424-15.842-8.544-8.961-15.759-18.975-23.193-28.831-4.862-6.446-9.227-13.449-17.262-18.911,1.7,20.552,8.551,37.621,22.491,50.922,16.836,16.064,21.758,34.261,13.326,55.951-6.487,16.688-6.088,33.815-3.533,51.106,3.366,22.779,9.361,45.155,10.639,68.242.278,5.02,2.575,4.9,6.411,4.207a72.24,72.24,0,0,1,46.3,6.467h1.648c-1.436-18.915-6.263-37.3-8.723-56.06-1.212-9.244-2.7-18.453-3.963-27.691-3.819-27.937,10.043-47.767,29.746-64.98" transform="translate(-58.892 -89.685)" fill="#d6843c"/>
    <path id="Path_241" data-name="Path 241" d="M47.3,342.473c-5.16.377-9.08.5-12.407-1.577C22.849,333.383,11.346,335.85,0,342.509v1.648c3.129,1.124,3.791,4.453,5.825,6.582,6.616,6.929,14.145,9.277,22.279,5.91a49.81,49.81,0,0,0,19.2-14.176" transform="translate(0 -128.26)" fill="#d6843c"/>
    <path id="Path_242" data-name="Path 242" d="M443.052,183.306c-10.934,9.232-15.537,35.04-4.489,44.838,31.453,11.931,62.315-19.5,55.862-51.319a5.027,5.027,0,0,0-.329.4c-2.941-14.906-40.2-4.573-51.044,6.077" transform="translate(-164.853 -64.756)" fill="#d6843c"/>
    <path id="Path_243" data-name="Path 243" d="M15.717,293.409c27.495,12.646,59.275,3.388,84.746-10.154-19.082-30.029-68.63-38.409-88.506-7.542-9.09,11.281-9.022,11.537,3.76,17.7" transform="translate(-2.125 -97.741)" fill="#d6843c"/>
    <path id="Path_244" data-name="Path 244" d="M319.447,270.445a37.634,37.634,0,0,0,2.631-42.384c-2.645-4.573-5.1-5.966-10.385-3.272-18.3,9.334-23.654,19.886-19.408,39.971,1.676,7.929,4.5,15.8,1.68,24.554,10.333-4.184,18.853-10.234,25.482-18.87" transform="translate(-110.956 -85.216)" fill="#d6843c"/>
    <path id="Path_245" data-name="Path 245" d="M142.445,410.8c-2.377-29.473-34.978-48.382-61.943-37.933-11.965,3.273-11.908,3.488-5.98,14.323a39.32,39.32,0,0,0,8.3,14.579C96.981,428.85,124.652,415.955,140.2,435.7c2.074-9.27,5.763-15.694,2.245-24.9" transform="translate(-26.933 -141.106)" fill="#d6843c"/>
    <path id="Path_246" data-name="Path 246" d="M440.518,323.372a20.911,20.911,0,0,1-1.944-1.415,35.5,35.5,0,0,0-31.744-1.645c-12.15,3.22-21.221,11-29.5,19.947a43.623,43.623,0,0,0-10.446,12.047c12.436,1.38,23.068,5.887,34.29,8.138,19.55,3.921,30.65-.593,41.919-17.1,10.486-11.721,10.373-12.58-2.578-19.968" transform="translate(-139.934 -121.035)" fill="#d6843c"/>
    <path id="Path_247" data-name="Path 247" d="M118.522,331.185c2.884,10.219,10.575,14.8,19.984,17.575,10.946,3.233,22.746,3.618,33.27,10.537-.3-6.3-2.4-11.3-4.435-16.323-8.346-20.629-28.662-23.579-46.6-17.561-3.388,1.136-2.962,3.118-2.214,5.771" transform="translate(-45.006 -123.063)" fill="#d6843c"/>
    <path id="Path_248" data-name="Path 248" d="M394.271,201.513c-5.734-7.492-9.84-13.552-14.67-18.967-4.556-5.107-10.48-8.181-17.653-6.5-7.936,1.864-14.417,6.42-20.475,11.735-2.461,2.159-1.508,3.4.285,5.207,7.754,7.813,17,10.827,27.772,8.678,7.529-1.5,15.006-3.093,24.742-.156" transform="translate(-129.674 -66.97)" fill="#d6843c"/>
    <path id="Path_249" data-name="Path 249" d="M393.114,47.931c12.556,1.186,21.8-3.468,27.59-14.765h0l2.833-8.342c1.1-3.794,5.327-8,0-11.316C408,3.831,380.174,9.6,368.493,24.594a13.478,13.478,0,0,0-4.923,6.536c-4.553,5.58-6.563,12.26-9.674,20.776,6.188-3.6,11.047-5.463,16.222-5.336,7.673.19,15.354.64,23,1.362" transform="translate(-134.979 -3.336)" fill="#d6843c"/>
    <path id="Path_250" data-name="Path 250" d="M225.241,56.169c7.464,24.641,33.822,49.324,49.808,13.641,4.341-7.382,4.8-17.132,2.827-25.31-2.064-19.436-17.27-34.4-32.809-44.5-6.678.327-10.71,10.592-13.973,16.259-6.133,11.99-10.157,26.7-5.852,39.91" transform="translate(-85.224)" fill="#d6843c"/>
    <path id="Path_251" data-name="Path 251" d="M298.96,161.135c13.13-24.2,43.17-21.331,60.306-38.171,42.984-63.59-71.44-59.667-60.306,38.171" transform="translate(-113.733 -30.695)" fill="#d6843c"/>
    <path id="Path_252" data-name="Path 252" d="M51.123,224.025c5.212,2.748,10.148.266,15.435-.354,3.979-1.054,22.256,3.2,16.972-3.969-12.078-14.2-29.6-20.918-47.711-15.459-1.8.479-5.431.864-3.339,3.964,4.682,6.937,9.13,14.457,18.643,15.819" transform="translate(-12.148 -77.178)" fill="#d6843c"/>
    <path id="Path_253" data-name="Path 253" d="M206.076,199.951c1.119,7.808,4.794,14.425,9.938,22.76,1.144-23.258,29.9-18.481,33.2-38.692,5.08-59.545-58.655-25.847-43.143,15.932" transform="translate(-77.669 -57.915)" fill="#d6843c"/>
    <path id="Path_254" data-name="Path 254" d="M75.422,125.486c.929,19.7,10.126,45.686,33.26,46.336,17.514,1.387,22.178,1.234,23.032-20.577,3.279-23.179-18.515-44.332-41.187-43.771-21.87-.8-18.61-2.666-15.105,18.013" transform="translate(-27.802 -40.825)" fill="#d6843c"/>
    <path id="Path_255" data-name="Path 255" d="M188.308,124.538c-6.514-19.781,11.226-34.788.144-51.965-7.528-20.6-21.057-22.693-28.2-.185-2.307,4.852-3.259,9.839-1.5,15.1,2.307,17.524,14.755,26.82,29.556,37.055" transform="translate(-60.203 -21.475)" fill="#d6843c"/>
    <path id="Path_256" data-name="Path 256" d="M463.659,275.138c-14.08.217-24.507,7.208-33.314,18.891,5.768,0,10.316-.2,14.84.048,6.017.325,12.014,1.406,18.02,1.411,7.417.008,16.367-6.86,14.879-11.505-2.076-6.482-8.093-8.942-14.425-8.845" transform="translate(-164.138 -104.939)" fill="#d6843c"/>
    <path id="Path_257" data-name="Path 257" d="M387.065,251.454c5.671-22.537-11.855-33.513-18.4-6.11-2.721,10.058,2.6,20.764-6.7,29.538,12.01-3.945,22.127-9.791,25.1-23.428" transform="translate(-138.056 -87.396)" fill="#d6843c"/>
    <path id="Path_258" data-name="Path 258" d="M313.8,33.016c1.8,5.522,5.115,10.225,8.26,15.015a2.126,2.126,0,0,1,.768,1.647q-.384-.823-.768-1.647c.2,2.318-.009,4.766.692,6.92.815,2.508,1.9,1.839,2.346-.4a39.559,39.559,0,0,0,8.815-26.9c-.242-6.237-8.944-14.613-14.161-14.087-3.648.368-7.643,9.264-6.877,15.454a21.544,21.544,0,0,0,.924,4" transform="translate(-119.297 -5.162)" fill="#d6843c"/>
    <path id="Path_259" data-name="Path 259" d="M248.789,252.416c-2.382-.09-4.764-.58-6.461,2.164a14.931,14.931,0,0,0,5.7,21.109c4.088,2.129,8.181,4.1,11.306,8.653,3.022-8.709,4.922-16.56,1.314-24.623-2.242-5.01-6.553-7.1-11.857-7.3" transform="translate(-91.568 -96.239)" fill="#d6843c"/>
    <path id="Path_260" data-name="Path 260" d="M136.177,89.058c.2-4.618.4-9.174.6-13.73,1.587-4.278,2.2-8.557.017-12.837v0c-2.19-3.306-2.706-9.347-7.649-8.611-4.649.692-6.562,5.648-7.757,10.384-2.835,11.24,2.815,21.122,14.785,24.8" transform="translate(-46.025 -20.526)" fill="#d6843c"/>
    <path id="Path_261" data-name="Path 261" d="M440.92,81.294c-12.386,13.566-10.389,34.481-25,47.4,5.451,1.586,11.72.44,17.2-1.118h0c27.048,1.5,46.459-19.815,38.807-46.37,0-3.383-2.71-6.278-1.78-9.831.636-4.357-1.017-6.227-5.384-4.683-8.816,3-18.4,6.542-23.84,14.6" transform="translate(-158.634 -25.233)" fill="#d6843c"/>
    <path id="Path_262" data-name="Path 262" d="M360.71,394.313l-3.323.018c-3.1-.366-6.16-.436-8.937,1.346h0c-14.925,4.891-21.759,16.022-20.422,33.9,5.629-3.853,11.394-7.229,18.153-7.072,14.731.342,23.168-6.119,26.576-26.8-3.859-1.815-7.933-1.768-12.045-1.4" transform="translate(-125.049 -150.316)" fill="#d6843c"/>
  </g>
</svg>
