<svg xmlns="http://www.w3.org/2000/svg" viewBox="0 0 68.93 69.42"><defs><style>.cls-1,.cls-2,.cls-3{fill:#d6843c;stroke:#d6843c;stroke-linecap:round;stroke-linejoin:round;}.cls-1{stroke-width:3.69px;}.cls-2{stroke-width:2.95px;}.cls-3{stroke-width:1.7px;}</style></defs><g id="Layer_2" data-name="Layer 2"><g id="Layer_1-2" data-name="Layer 1"><path class="cls-1" d="M35.15,1.85h0a39.35,39.35,0,0,1-16.07,19h0a39.3,39.3,0,0,1,16.07,19h0a39.28,39.28,0,0,1,16.06-19h0A39.33,39.33,0,0,1,35.15,1.85Z"/><path class="cls-2" d="M54.62,37.53h0a31.39,31.39,0,0,1-12.83,15.2h0A31.42,31.42,0,0,1,54.62,67.94h0A31.42,31.42,0,0,1,67.45,52.73h0A31.39,31.39,0,0,1,54.62,37.53Z"/><path class="cls-3" d="M8.23,28.77h0A18.11,18.11,0,0,1,.85,37.53h0a18,18,0,0,1,7.38,8.75h0a18,18,0,0,1,7.38-8.75h0A18.11,18.11,0,0,1,8.23,28.77Z"/></g></g></svg>